# xmcd
#
# Track frame offsets: 
#        150
#        17100
#        36070
#        53531
#        68100
#        88200
#        102338
#        118313
#        136500
#        154584
#        172683
#        192000
#        211553
#        225222
#        242278
#        267525
#        278700
#        297150
#        315356
#
# Disc length: 4427 seconds
#
# Revision: 0
# Processed by: cddbd v1.5.2PL0 Copyright (c) Steve Scherf et al.
# Submitted via: ExactAudioCopy v1.0b1
#
DISCID=ec114913
DTITLE=Woxang - 1 Plus Remixed
DYEAR=2011
DGENRE=Vocal
TTITLE0=Keeping Your Heart Warm (just for yourself vs. leather rmxd by
TTITLE0=Destille)
TTITLE1=Maybe For You (remiXed by SuperMaxxoStudio feat. MyWay)
TTITLE2=Black Dog (rmxd by the Waz Exp. and Mike Tales)
TTITLE3=Father Figure (rico zerone remix)
TTITLE4=SuperVIBE (momosapiens edit)
TTITLE5=Gipsy Kyrie (feat. Harri Stojka)
TTITLE6=Sweet Temptation (Sulinor rmx)
TTITLE7=Tickles (Vivi Pedraglio ReMix)
TTITLE8=Nothing I Don't Know (pink candy vs. cherry poppers rmxd by ad
TTITLE8=am rake)
TTITLE9=For You Unshaded (rmxd by metraphase&metamusic+)
TTITLE10=Kyrie (Shenpen Senge mix)
TTITLE11=SuperVIBE (rmxd by Waz Exp. and Mike Tales)
TTITLE12=Black Dog (rmxd by The IFP)
TTITLE13=Die Sündenkuh (CO2 polka remix by martinek)
TTITLE14=Black Dog (Nil Dymonts Son-Xang Remix)
TTITLE15=Tender Tickles (tickles tenderboy remix)
TTITLE16=Shadows and Light (Beitegeuze Mix)
TTITLE17=Sunday Sunray (rmxd Chris Vano)
TTITLE18=Shadows and Light (D-Tex got the Blues Mash Up)
EXTD=
EXTT0=
EXTT1=
EXTT2=
EXTT3=
EXTT4=
EXTT5=
EXTT6=
EXTT7=
EXTT8=
EXTT9=
EXTT10=
EXTT11=
EXTT12=
EXTT13=
EXTT14=
EXTT15=
EXTT16=
EXTT17=
EXTT18=
PLAYORDER=
